<svg width="32" height="24" viewBox="0 0 32 24" fill="none" xmlns="http://www.w3.org/2000/svg">
<path d="M1 4.6665H17.875" stroke="white" stroke-width="2" stroke-linecap="round" stroke-linejoin="round"/>
<path d="M25.375 4.6665H31" stroke="white" stroke-width="2" stroke-linecap="round" stroke-linejoin="round"/>
<path d="M14.125 19.3335H31" stroke="white" stroke-width="2" stroke-linecap="round" stroke-linejoin="round"/>
<path d="M1 19.3335H6.625" stroke="white" stroke-width="2" stroke-linecap="round" stroke-linejoin="round"/>
<path d="M10.375 22.9998C12.4461 22.9998 14.125 21.3582 14.125 19.3332C14.125 17.3081 12.4461 15.6665 10.375 15.6665C8.30393 15.6665 6.625 17.3081 6.625 19.3332C6.625 21.3582 8.30393 22.9998 10.375 22.9998Z" stroke="white" stroke-width="2"/>
<path d="M21.625 8.33333C23.6961 8.33333 25.375 6.69171 25.375 4.66667C25.375 2.64162 23.6961 1 21.625 1C19.5539 1 17.875 2.64162 17.875 4.66667C17.875 6.69171 19.5539 8.33333 21.625 8.33333Z" stroke="white" stroke-width="2"/>
</svg>
